<svg xmlns="http://www.w3.org/2000/svg" version="1.1" xmlns:xlink="http://www.w3.org/1999/xlink" viewBox="0 0 200 200"><rect width="200" height="200" fill="url('#gradient')"></rect><defs><linearGradient id="gradient" gradientTransform="rotate(360 0.5 0.5)"><stop offset="0%" stop-color="#e3c335"></stop><stop offset="100%" stop-color="#3f3f3f"></stop></linearGradient></defs><g><g fill="#421b25" transform="matrix(1.1214602346805738,0,0,1.1214602346805738,14.937631633353185,106.0782363562354)" stroke="#7f3e40" stroke-width="0.3"><path d="M10.73-5.36L10.73-5.20Q10.73-2.60 9.66-1.20Q8.58 0.20 6.63 0.20L6.63 0.20Q5.02 0.20 4.03-1.08L4.03-1.08L3.90 0L0.95 0L0.95-15L4.24-15L4.24-9.72Q5.16-10.76 6.61-10.76L6.61-10.76Q8.58-10.76 9.66-9.35Q10.73-7.93 10.73-5.36L10.73-5.36ZM7.43-5.40L7.43-5.40Q7.43-6.92 7.03-7.57Q6.62-8.22 5.78-8.22L5.78-8.22Q4.67-8.22 4.24-7.37L4.24-7.37L4.24-3.17Q4.66-2.33 5.80-2.33L5.80-2.33Q6.96-2.33 7.28-3.47L7.28-3.47Q7.43-4.02 7.43-5.40ZM15.65-15L15.65 0L12.35 0L12.35-15L15.65-15ZM17.28-4.82L17.27-5.38Q17.27-6.96 17.88-8.20Q18.50-9.43 19.65-10.10Q20.80-10.76 22.35-10.76L22.35-10.76Q24.73-10.76 26.09-9.29Q27.46-7.82 27.46-5.29L27.46-5.29L27.46-5.18Q27.46-2.71 26.09-1.25Q24.72 0.20 22.37 0.20L22.37 0.20Q20.12 0.20 18.75-1.16Q17.38-2.51 17.28-4.82L17.28-4.82ZM20.57-5.77L20.56-5.18Q20.56-3.71 21.02-3.03Q21.47-2.34 22.37-2.34L22.37-2.34Q24.13-2.34 24.17-5.05L24.17-5.05L24.17-5.38Q24.17-8.22 22.35-8.22L22.35-8.22Q20.70-8.22 20.57-5.77L20.57-5.77ZM28.53-5.24L28.53-5.36Q28.53-6.96 29.05-8.19Q29.58-9.42 30.57-10.09Q31.55-10.76 32.86-10.76L32.86-10.76Q34.51-10.76 35.44-9.65L35.44-9.65L35.56-10.57L38.54-10.57L38.54-0.40Q38.54 1.00 37.90 2.03Q37.25 3.06 36.02 3.61Q34.79 4.16 33.16 4.16L33.16 4.16Q32.00 4.16 30.91 3.72Q29.82 3.28 29.25 2.58L29.25 2.58L30.63 0.64Q31.54 1.73 33.05 1.73L33.05 1.73Q35.23 1.73 35.23-0.52L35.23-0.52L35.23-0.85Q34.29 0.20 32.84 0.20L32.84 0.20Q30.91 0.20 29.72-1.28Q28.53-2.76 28.53-5.24L28.53-5.24ZM31.83-5.16L31.83-5.16Q31.83-3.86 32.31-3.10Q32.80-2.34 33.68-2.34L33.68-2.34Q34.75-2.34 35.23-3.06L35.23-3.06L35.23-7.50Q34.76-8.22 33.70-8.22L33.70-8.22Q32.82-8.22 32.32-7.44Q31.83-6.65 31.83-5.16ZM49.66 0L46.37 0Q46.19-0.32 46.05-0.95L46.05-0.95Q45.15 0.20 43.52 0.20L43.52 0.20Q42.02 0.20 40.98-0.71Q39.93-1.61 39.93-2.98L39.93-2.98Q39.93-4.70 41.20-5.58Q42.47-6.46 44.89-6.46L44.89-6.46L45.91-6.46L45.91-7.01Q45.91-8.47 44.65-8.47L44.65-8.47Q43.48-8.47 43.48-7.31L43.48-7.31L40.19-7.31Q40.19-8.85 41.49-9.80Q42.79-10.76 44.81-10.76Q46.84-10.76 48.01-9.78Q49.18-8.79 49.21-7.07L49.21-7.07L49.21-2.39Q49.23-0.94 49.66-0.17L49.66-0.17L49.66 0ZM44.31-2.15L44.31-2.15Q44.92-2.15 45.33-2.41Q45.73-2.68 45.91-3.01L45.91-3.01L45.91-4.70L44.95-4.70Q43.23-4.70 43.23-3.15L43.23-3.15Q43.23-2.71 43.54-2.43Q43.84-2.15 44.31-2.15ZM54.50-10.57L54.50 0L51.20 0L51.20-10.57L54.50-10.57ZM51.01-13.29L51.01-13.29Q51.01-13.99 51.51-14.44Q52.02-14.89 52.83-14.89Q53.64-14.89 54.15-14.44Q54.66-13.99 54.66-13.29Q54.66-12.59 54.15-12.14Q53.64-11.69 52.83-11.69Q52.02-11.69 51.51-12.14Q51.01-12.59 51.01-13.29ZM59.75-15L59.75-9.43Q60.80-10.76 62.44-10.76L62.44-10.76Q64.19-10.76 65.08-9.73Q65.97-8.69 65.99-6.67L65.99-6.67L65.99 0L62.69 0L62.69-6.59Q62.69-7.43 62.34-7.83Q62.00-8.22 61.18-8.22L61.18-8.22Q60.17-8.22 59.75-7.58L59.75-7.58L59.75 0L56.46 0L56.46-15L59.75-15ZM74.21 0L74.11-1.14Q73.07 0.20 71.29 0.20L71.29 0.20Q69.55 0.20 68.66-0.82Q67.76-1.83 67.76-3.72L67.76-3.72L67.76-10.57L71.05-10.57L71.05-3.70Q71.05-2.34 72.37-2.34L72.37-2.34Q73.51-2.34 73.98-3.15L73.98-3.15L73.98-10.57L77.29-10.57L77.29 0L74.21 0ZM88.91-5.36L88.91-5.20Q88.91-2.60 87.83-1.20Q86.76 0.20 84.80 0.20L84.80 0.20Q83.19 0.20 82.21-1.08L82.21-1.08L82.07 0L79.12 0L79.12-15L82.41-15L82.41-9.72Q83.33-10.76 84.79-10.76L84.79-10.76Q86.76-10.76 87.83-9.35Q88.91-7.93 88.91-5.36L88.91-5.36ZM85.61-5.40L85.61-5.40Q85.61-6.92 85.20-7.57Q84.79-8.22 83.96-8.22L83.96-8.22Q82.84-8.22 82.41-7.37L82.41-7.37L82.41-3.17Q82.83-2.33 83.97-2.33L83.97-2.33Q85.14-2.33 85.45-3.47L85.45-3.47Q85.61-4.02 85.61-5.40ZM92.39-3.19L92.39-3.19Q93.17-3.19 93.69-2.73Q94.21-2.27 94.21-1.54Q94.21-0.82 93.69-0.36Q93.17 0.11 92.39 0.11L92.39 0.11Q91.60 0.11 91.09-0.36Q90.58-0.83 90.58-1.54Q90.58-2.26 91.09-2.72Q91.60-3.19 92.39-3.19ZM96.00-4.82L95.99-5.38Q95.99-6.96 96.60-8.20Q97.22-9.43 98.37-10.10Q99.52-10.76 101.07-10.76L101.07-10.76Q103.45-10.76 104.81-9.29Q106.18-7.82 106.18-5.29L106.18-5.29L106.18-5.18Q106.18-2.71 104.81-1.25Q103.44 0.20 101.09 0.20L101.09 0.20Q98.84 0.20 97.47-1.16Q96.10-2.51 96.00-4.82L96.00-4.82ZM99.29-5.77L99.28-5.18Q99.28-3.71 99.74-3.03Q100.20-2.34 101.09-2.34L101.09-2.34Q102.85-2.34 102.89-5.05L102.89-5.05L102.89-5.38Q102.89-8.22 101.07-8.22L101.07-8.22Q99.42-8.22 99.29-5.77L99.29-5.77ZM107.57-10.57L110.65-10.57L110.76-9.33Q111.86-10.76 113.78-10.76L113.78-10.76Q115.43-10.76 116.25-9.78Q117.06-8.79 117.09-6.81L117.09-6.81L117.09 0L113.79 0L113.79-6.67Q113.79-7.47 113.47-7.85Q113.14-8.22 112.29-8.22L112.29-8.22Q111.33-8.22 110.86-7.46L110.86-7.46L110.86 0L107.57 0L107.57-10.57ZM122.38-15L122.38 0L119.08 0L119.08-15L122.38-15ZM127.88-10.57L127.88 0L124.58 0L124.58-10.57L127.88-10.57ZM124.38-13.29L124.38-13.29Q124.38-13.99 124.89-14.44Q125.40-14.89 126.21-14.89Q127.02-14.89 127.53-14.44Q128.04-13.99 128.04-13.29Q128.04-12.59 127.53-12.14Q127.02-11.69 126.21-11.69Q125.40-11.69 124.89-12.14Q124.38-12.59 124.38-13.29ZM129.84-10.57L132.93-10.57L133.04-9.33Q134.13-10.76 136.05-10.76L136.05-10.76Q137.71-10.76 138.52-9.78Q139.34-8.79 139.37-6.81L139.37-6.81L139.37 0L136.06 0L136.06-6.67Q136.06-7.47 135.74-7.85Q135.42-8.22 134.57-8.22L134.57-8.22Q133.60-8.22 133.13-7.46L133.13-7.46L133.13 0L129.84 0L129.84-10.57ZM146.30 0.20L146.30 0.20Q143.87 0.20 142.36-1.25Q140.86-2.71 140.86-5.03L140.86-5.03L140.86-5.30Q140.86-6.92 141.46-8.16Q142.06-9.40 143.21-10.08Q144.37-10.76 145.95-10.76L145.95-10.76Q148.17-10.76 149.46-9.38Q150.75-8.00 150.75-5.53L150.75-5.53L150.75-4.25L144.21-4.25Q144.38-3.36 144.98-2.85Q145.58-2.34 146.52-2.34L146.52-2.34Q148.09-2.34 148.96-3.44L148.96-3.44L150.47-1.66Q149.85-0.81 148.73-0.31Q147.60 0.20 146.30 0.20ZM145.93-8.22L145.93-8.22Q144.48-8.22 144.21-6.31L144.21-6.31L147.53-6.31L147.53-6.56Q147.55-7.35 147.13-7.79Q146.71-8.22 145.93-8.22Z"></path></g></g></svg>